<svg width="165" height="150" viewBox="0 0 165 150" fill="none" xmlns="http://www.w3.org/2000/svg">
<path d="M164.705 110.478C166.338 125.907 160.656 150 160.656 150C160.656 150 154.999 138.968 150.903 132.169C146.863 125.465 144.79 121.523 139.861 115.441C135.736 110.35 133.357 107.439 128.268 103.309C122.068 98.2781 118.176 95.5434 110.601 93.0147C103.051 90.4945 98.2864 89.9151 90.3577 90.625C84.6112 91.1395 76.0036 94.1176 76.0036 94.1176V125.735L0 62.1324L76.0036 0V33.2721C76.0036 33.2721 98.4071 35.7087 111.521 41.1765C129.124 48.5159 139.939 54.4455 150.903 70.0368C160.505 83.6905 162.949 93.8847 164.705 110.478Z" fill="url(#paint0_linear_174_2)"/>
<defs>
<linearGradient id="paint0_linear_174_2" x1="99.8537" y1="11.2718" x2="8.33981" y2="114.197" gradientUnits="userSpaceOnUse">
<stop offset="0.0639605" stop-color="#A9745B"/>
<stop offset="0.632098" stop-color="#5C3A21"/>
</linearGradient>
</defs>
</svg>
