<svg width="512" height="512" viewBox="0 0 512 512" fill="none" xmlns="http://www.w3.org/2000/svg">
<path d="M512 256C512 188.105 485.029 122.99 437.019 74.9807C389.01 26.9714 323.895 0 256 0C188.105 0 122.99 26.9714 74.9807 74.9807C26.9714 122.99 0 188.105 0 256C0 323.895 26.9714 389.01 74.9807 437.019C122.99 485.029 188.105 512 256 512C323.895 512 389.01 485.029 437.019 437.019C485.029 389.01 512 323.895 512 256ZM116.7 244.7L228.7 132.7C233.3 128.1 240.2 126.8 246.1 129.2C252 131.6 256 137.5 256 144V208H352C369.7 208 384 222.3 384 240V272C384 289.7 369.7 304 352 304H256V368C256 374.5 252.1 380.3 246.1 382.8C240.1 385.3 233.2 383.9 228.7 379.3L116.7 267.3C110.5 261.1 110.5 250.9 116.7 244.7Z" fill="url(#paint0_linear_6_7)"/>
<defs>
<linearGradient id="paint0_linear_6_7" x1="502.386" y1="5.70483e-06" x2="-2.41113e-05" y2="511.211" gradientUnits="userSpaceOnUse">
<stop offset="0.29" stop-color="#995026"/>
<stop offset="0.63" stop-color="#5C3A21"/>
</linearGradient>
</defs>
</svg>
