<svg width="576" height="513" viewBox="0 0 576 513" fill="none" xmlns="http://www.w3.org/2000/svg">
<path d="M575.7 255.5C575.7 273.5 560.7 287.6 543.7 287.6H511.7L512.4 447.8C512.4 450.5 512.2 453.2 511.9 455.9V472.1C511.9 494.2 494 512.1 471.9 512.1H455.9C454.8 512.1 453.7 512.1 452.6 512C451.2 512.1 449.8 512.1 448.4 512.1L415.9 512H391.9C369.8 512 351.9 494.1 351.9 472V448V384C351.9 366.3 337.6 352 319.9 352H255.9C238.2 352 223.9 366.3 223.9 384V448V472C223.9 494.1 206 512 183.9 512H159.9H128C126.5 512 125 511.9 123.5 511.8C122.3 511.9 121.1 512 119.9 512H103.9C81.8 512 63.9 494.1 63.9 472V360C63.9 359.1 63.9 358.1 64 357.2V287.5H32C14 287.5 0 273.5 0 255.4C0 246.4 3 238.4 10 231.4L266.3 8C273.3 1 281.3 0 288.3 0C295.3 0 303.3 2 309.3 7L564.7 231.5C572.7 238.5 576.7 246.5 575.7 255.5Z" fill="url(#paint0_linear_6_3)"/>
<defs>
<linearGradient id="paint0_linear_6_3" x1="543.976" y1="-4.18797e-07" x2="31.8755" y2="512.1" gradientUnits="userSpaceOnUse">
<stop offset="0.29" stop-color="#995026"/>
<stop offset="0.63" stop-color="#5C3A21"/>
</linearGradient>
</defs>
</svg>
